<?xml version="1.0" encoding="utf-8"?>
<!-- Generator: Adobe Illustrator 27.9.0, SVG Export Plug-In . SVG Version: 6.00 Build 0)  -->
<svg version="1.1" id="Layer_2" xmlns="http://www.w3.org/2000/svg" xmlns:xlink="http://www.w3.org/1999/xlink" x="0px" y="0px"
	 viewBox="0 0 311.81 311.81" style="enable-background:new 0 0 311.81 311.81;" xml:space="preserve">
<style type="text/css">
	.st0{fill:#050505;}
	.st1{fill:#FFFFFF;}
	.st2{fill:#F7ED19;}
</style>
<path class="st2" d="M125.2,79.54v216.52c0.02-0.2,0.06-0.38,0.09-0.56c0.11-0.81,0.22-1.62,0.34-2.42
	c0.18-1.37,0.38-2.76,0.58-4.13c0.27-1.89,0.53-3.76,0.8-5.63c0.33-2.31,0.65-4.62,0.98-6.93c0.38-2.67,0.75-5.34,1.13-8.01
	c0.42-2.95,0.83-5.9,1.25-8.87c0.45-3.17,0.89-6.34,1.35-9.53c0.47-3.32,0.93-6.65,1.41-9.97c0.48-3.4,0.96-6.8,1.43-10.2
	c0.48-3.4,0.97-6.82,1.45-10.23c0.47-3.34,0.94-6.69,1.41-10.03c0.45-3.21,0.91-6.43,1.36-9.64c0.43-3,0.86-6.01,1.27-9.01
	c0.42-2.95,0.85-5.9,1.25-8.84c0.11-0.78,0.22-1.56,0.33-2.33c0.45-3.22,0.91-6.45,1.36-9.68c0.44-3.2,0.75-6.39,1.47-9.54
	c0.48-2.06,2.56-3.59,4.67-3.31c0.78,0.11,1.54,0.44,2.17,0.94c0.32,0.27,0.61,0.58,0.85,0.92c0.18,0.27,0.37,0.54,0.49,0.85
	l0.06,0.13l25.49,73.53c0.78,2.27,3.27,3.47,5.54,2.68c1.86-0.65,3.01-2.44,2.91-4.31l0.01-216.2c-0.04,0.18-0.06,0.37-0.09,0.56
	c-0.11,0.81-0.22,1.6-0.34,2.41c-0.2,1.38-0.38,2.76-0.58,4.14c-0.27,1.87-0.54,3.76-0.8,5.63c-0.33,2.3-0.65,4.62-0.98,6.92
	c-0.38,2.67-0.75,5.34-1.13,8.01c-0.42,2.95-0.83,5.92-1.25,8.87c-0.45,3.18-0.89,6.36-1.35,9.53c-0.47,3.33-0.94,6.65-1.41,9.97
	c-0.48,3.4-0.96,6.81-1.43,10.21c-0.49,3.4-0.97,6.81-1.45,10.21c-0.48,3.36-0.94,6.7-1.42,10.04l-1.36,9.63
	c-0.42,3.01-0.85,6.01-1.26,9.03c-0.42,2.94-0.85,5.89-1.26,8.84c-0.1,0.77-0.21,1.54-0.32,2.33c-0.45,3.22-0.91,6.44-1.36,9.68
	c-0.44,3.18-0.76,6.38-1.48,9.54c-0.47,2.06-2.56,3.58-4.65,3.29c-0.8-0.11-1.56-0.43-2.17-0.94c-0.33-0.26-0.61-0.56-0.85-0.91
	c-0.18-0.27-0.37-0.55-0.49-0.85l-0.06-0.15l-25.49-73.52c-0.8-2.28-3.27-3.48-5.54-2.69c-1.86,0.65-3.01,2.45-2.91,4.32
	L125.2,79.54z"/>
</svg>
